<svg width="12" height="12" viewBox="0 0 12 12" fill="none" xmlns="http://www.w3.org/2000/svg">
<path d="M11 6.83334H6.83329V11C6.83329 11.4583 6.45829 11.8333 5.99996 11.8333C5.54163 11.8333 5.16663 11.4583 5.16663 11V6.83334H0.999959C0.541626 6.83334 0.166626 6.45834 0.166626 6C0.166626 5.54167 0.541626 5.16667 0.999959 5.16667H5.16663V1C5.16663 0.541668 5.54163 0.166668 5.99996 0.166668C6.45829 0.166668 6.83329 0.541668 6.83329 1V5.16667H11C11.4583 5.16667 11.8333 5.54167 11.8333 6C11.8333 6.45834 11.4583 6.83334 11 6.83334Z" fill="white"/>
</svg>
